<mxfile host="app.diagrams.net" modified="2025-10-18T00:00:00.000Z" agent="Claude Code" version="24.0.0">
  <diagram name="Microservices Interaction" id="microservices">
    <mxGraphModel dx="1600" dy="900" grid="1" gridSize="10" guides="1" tooltips="1" connect="1" arrows="1" fold="1" page="1" pageScale="1" pageWidth="1800" pageHeight="1200" math="0" shadow="0">
      <root>
        <mxCell id="0" />
        <mxCell id="1" parent="0" />

        <mxCell id="title" value="HelixTrack Microservices - HTTP-Based Communication" style="text;html=1;strokeColor=none;fillColor=none;align=center;verticalAlign=middle;whiteSpace=wrap;rounded=0;fontSize=26;fontStyle=1" vertex="1" parent="1">
          <mxGeometry x="400" y="20" width="1000" height="50" as="geometry" />
        </mxCell>

        <!-- Core Service -->
        <mxCell id="core-service-bg" value="" style="rounded=1;whiteSpace=wrap;html=1;fillColor=#FFE0B2;strokeColor=#E65100;strokeWidth=3;" vertex="1" parent="1">
          <mxGeometry x="650" y="400" width="500" height="350" as="geometry" />
        </mxCell>
        <mxCell id="core-title" value="CORE SERVICE (HelixTrack Core)" style="text;html=1;strokeColor=none;fillColor=none;align=center;verticalAlign=top;whiteSpace=wrap;rounded=0;fontSize=18;fontStyle=1;fontColor=#E65100;" vertex="1" parent="1">
          <mxGeometry x="670" y="410" width="460" height="30" as="geometry" />
        </mxCell>

        <mxCell id="core-details" value="Technology: Go 1.22+ / Gin Gonic&#xa;Port: 8080 (configurable)&#xa;Protocol: HTTP/HTTPS&#xa;Database: SQLite / PostgreSQL&#xa;Features: 282 API Actions&#xa;Schema: V3 (89 tables)&#xa;Performance: 50K+ req/s" style="rounded=1;whiteSpace=wrap;html=1;fillColor=#FF9800;strokeColor=#E65100;fontColor=#FFFFFF;fontSize=11;align=left;spacingLeft=15;fontStyle=1" vertex="1" parent="1">
          <mxGeometry x="700" y="460" width="400" height="120" as="geometry" />
        </mxCell>

        <mxCell id="core-endpoints" value="Core Endpoints:&#xa;• POST /do (unified endpoint)&#xa;• GET /health&#xa;• GET /version&#xa;• WS /ws (WebSocket)" style="rounded=1;whiteSpace=wrap;html=1;fillColor=#FFB74D;strokeColor=#E65100;fontSize=10;align=left;spacingLeft=10;fontFamily=Courier New;" vertex="1" parent="1">
          <mxGeometry x="700" y="600" width="400" height="80" as="geometry" />
        </mxCell>

        <!-- Auth Service -->
        <mxCell id="auth-service-bg" value="" style="rounded=1;whiteSpace=wrap;html=1;fillColor=#E1BEE7;strokeColor=#6A1B9A;strokeWidth=3;" vertex="1" parent="1">
          <mxGeometry x="80" y="120" width="400" height="220" as="geometry" />
        </mxCell>
        <mxCell id="auth-service-title" value="AUTHENTICATION SERVICE" style="text;html=1;strokeColor=none;fillColor=none;align=center;verticalAlign=top;whiteSpace=wrap;rounded=0;fontSize=16;fontStyle=1;fontColor=#6A1B9A;" vertex="1" parent="1">
          <mxGeometry x="100" y="130" width="360" height="30" as="geometry" />
        </mxCell>

        <mxCell id="auth-details" value="Type: Mandatory (proprietary/replaceable)&#xa;Protocol: HTTP/REST&#xa;Port: 8081 (configurable)&#xa;Purpose: JWT token validation&#xa;&#xa;Endpoints:&#xa;• POST /authenticate&#xa;• POST /validate&#xa;• POST /refresh&#xa;&#xa;Can be disabled in config for testing" style="rounded=1;whiteSpace=wrap;html=1;fillColor=#9C27B0;strokeColor=#4A148C;fontColor=#FFFFFF;fontSize=10;align=left;spacingLeft=10;" vertex="1" parent="1">
          <mxGeometry x="110" y="170" width="340" height="150" as="geometry" />
        </mxCell>

        <!-- Permission Service -->
        <mxCell id="perm-service-bg" value="" style="rounded=1;whiteSpace=wrap;html=1;fillColor=#E1BEE7;strokeColor=#6A1B9A;strokeWidth=3;" vertex="1" parent="1">
          <mxGeometry x="1320" y="120" width="400" height="220" as="geometry" />
        </mxCell>
        <mxCell id="perm-service-title" value="PERMISSIONS ENGINE" style="text;html=1;strokeColor=none;fillColor=none;align=center;verticalAlign=top;whiteSpace=wrap;rounded=0;fontSize=16;fontStyle=1;fontColor=#6A1B9A;" vertex="1" parent="1">
          <mxGeometry x="1340" y="130" width="360" height="30" as="geometry" />
        </mxCell>

        <mxCell id="perm-details" value="Type: Mandatory (proprietary/replaceable)&#xa;Protocol: HTTP/REST&#xa;Port: 8082 (configurable)&#xa;Purpose: RBAC permission checks&#xa;&#xa;Endpoints:&#xa;• POST /check&#xa;• GET /permissions/:user&#xa;• POST /grant&#xa;&#xa;Can be disabled in config for testing" style="rounded=1;whiteSpace=wrap;html=1;fillColor=#9C27B0;strokeColor=#4A148C;fontColor=#FFFFFF;fontSize=10;align=left;spacingLeft=10;" vertex="1" parent="1">
          <mxGeometry x="1350" y="170" width="340" height="150" as="geometry" />
        </mxCell>

        <!-- Optional Extensions -->
        <mxCell id="ext-title" value="OPTIONAL EXTENSIONS" style="text;html=1;strokeColor=none;fillColor=none;align=center;verticalAlign=middle;whiteSpace=wrap;rounded=0;fontSize=18;fontStyle=1;fontColor=#00838F;" vertex="1" parent="1">
          <mxGeometry x="650" y="820" width="500" height="30" as="geometry" />
        </mxCell>

        <!-- Lokalisation Extension -->
        <mxCell id="lok-ext" value="LOKALISATION SERVICE&#xa;&#xa;Type: Optional&#xa;Port: 8083&#xa;Purpose: i18n/l10n&#xa;Provides: Multi-language support" style="rounded=1;whiteSpace=wrap;html=1;fillColor=#00BCD4;strokeColor=#006064;fontColor=#FFFFFF;fontSize=10;align=left;spacingLeft=10;fontStyle=1" vertex="1" parent="1">
          <mxGeometry x="80" y="880" width="200" height="100" as="geometry" />
        </mxCell>

        <!-- Times Extension -->
        <mxCell id="times-ext" value="TIMES EXTENSION&#xa;&#xa;Type: Optional&#xa;Port: 8084&#xa;Purpose: Time tracking&#xa;Features: Timesheets, reports" style="rounded=1;whiteSpace=wrap;html=1;fillColor=#00BCD4;strokeColor=#006064;fontColor=#FFFFFF;fontSize=10;align=left;spacingLeft=10;fontStyle=1" vertex="1" parent="1">
          <mxGeometry x="320" y="880" width="200" height="100" as="geometry" />
        </mxCell>

        <!-- Documents Extension -->
        <mxCell id="docs-ext" value="DOCUMENTS EXTENSION&#xa;&#xa;Type: Optional&#xa;Port: 8085&#xa;Purpose: Doc management&#xa;Features: Storage, versioning" style="rounded=1;whiteSpace=wrap;html=1;fillColor=#00BCD4;strokeColor=#006064;fontColor=#FFFFFF;fontSize=10;align=left;spacingLeft=10;fontStyle=1" vertex="1" parent="1">
          <mxGeometry x="560" y="880" width="200" height="100" as="geometry" />
        </mxCell>

        <!-- Chats Extension -->
        <mxCell id="chats-ext" value="CHATS EXTENSION&#xa;&#xa;Type: Optional&#xa;Port: 8086&#xa;Purpose: Real-time chat&#xa;Integrations: Slack, Telegram&#xa;Features: Rooms, mentions" style="rounded=1;whiteSpace=wrap;html=1;fillColor=#00BCD4;strokeColor=#006064;fontColor=#FFFFFF;fontSize=10;align=left;spacingLeft=10;fontStyle=1" vertex="1" parent="1">
          <mxGeometry x="800" y="880" width="200" height="110" as="geometry" />
        </mxCell>

        <!-- HTTP Connections -->
        <mxCell id="conn-auth1" style="edgeStyle=orthogonalEdgeStyle;rounded=0;orthogonalLoop=1;jettySize=auto;html=1;strokeWidth=3;strokeColor=#9C27B0;dashed=1;" edge="1" parent="1" source="core-details" target="auth-details">
          <mxGeometry relative="1" as="geometry">
            <Array as="points">
              <mxPoint x="650" y="520" />
              <mxPoint x="650" y="245" />
            </Array>
          </mxGeometry>
        </mxCell>
        <mxCell id="conn-auth1-label" value="HTTP&#xa;JWT Validation" style="text;html=1;align=center;verticalAlign=middle;whiteSpace=wrap;fontSize=10;fontStyle=1;fontColor=#9C27B0;" vertex="1" parent="1">
          <mxGeometry x="530" y="350" width="100" height="30" as="geometry" />
        </mxCell>

        <mxCell id="conn-perm1" style="edgeStyle=orthogonalEdgeStyle;rounded=0;orthogonalLoop=1;jettySize=auto;html=1;strokeWidth=3;strokeColor=#9C27B0;dashed=1;" edge="1" parent="1" source="core-details" target="perm-details">
          <mxGeometry relative="1" as="geometry">
            <Array as="points">
              <mxPoint x="1200" y="520" />
              <mxPoint x="1200" y="245" />
            </Array>
          </mxGeometry>
        </mxCell>
        <mxCell id="conn-perm1-label" value="HTTP&#xa;Permission Check" style="text;html=1;align=center;verticalAlign=middle;whiteSpace=wrap;fontSize=10;fontStyle=1;fontColor=#9C27B0;" vertex="1" parent="1">
          <mxGeometry x="1180" y="350" width="120" height="30" as="geometry" />
        </mxCell>

        <mxCell id="conn-lok" style="edgeStyle=orthogonalEdgeStyle;rounded=0;orthogonalLoop=1;jettySize=auto;html=1;strokeWidth=2;strokeColor=#00838F;dashed=1;dashPattern=8 8;" edge="1" parent="1" source="core-endpoints" target="lok-ext">
          <mxGeometry relative="1" as="geometry" />
        </mxCell>

        <mxCell id="conn-times" style="edgeStyle=orthogonalEdgeStyle;rounded=0;orthogonalLoop=1;jettySize=auto;html=1;strokeWidth=2;strokeColor=#00838F;dashed=1;dashPattern=8 8;" edge="1" parent="1" source="core-endpoints" target="times-ext">
          <mxGeometry relative="1" as="geometry" />
        </mxCell>

        <mxCell id="conn-docs" style="edgeStyle=orthogonalEdgeStyle;rounded=0;orthogonalLoop=1;jettySize=auto;html=1;strokeWidth=2;strokeColor=#00838F;dashed=1;dashPattern=8 8;" edge="1" parent="1" source="core-endpoints" target="docs-ext">
          <mxGeometry relative="1" as="geometry" />
        </mxCell>

        <mxCell id="conn-chats" style="edgeStyle=orthogonalEdgeStyle;rounded=0;orthogonalLoop=1;jettySize=auto;html=1;strokeWidth=2;strokeColor=#00838F;dashed=1;dashPattern=8 8;" edge="1" parent="1" source="core-endpoints" target="chats-ext">
          <mxGeometry relative="1" as="geometry" />
        </mxCell>

        <!-- Deployment Scenarios -->
        <mxCell id="deploy-bg" value="" style="rounded=1;whiteSpace=wrap;html=1;fillColor=#E3F2FD;strokeColor=#1976D2;strokeWidth=2;" vertex="1" parent="1">
          <mxGeometry x="1040" y="880" width="680" height="280" as="geometry" />
        </mxCell>
        <mxCell id="deploy-title" value="DEPLOYMENT SCENARIOS" style="text;html=1;strokeColor=none;fillColor=none;align=left;verticalAlign=top;whiteSpace=wrap;rounded=0;fontSize=16;fontStyle=1;fontColor=#1976D2;" vertex="1" parent="1">
          <mxGeometry x="1060" y="890" width="400" height="30" as="geometry" />
        </mxCell>

        <mxCell id="scenario1" value="SCENARIO 1: Development (Single Machine)&#xa;&#xa;All services on localhost:&#xa;• Core: localhost:8080&#xa;• Auth: localhost:8081 (optional)&#xa;• Perm: localhost:8082 (optional)&#xa;&#xa;Database: SQLite (embedded)" style="rounded=1;whiteSpace=wrap;html=1;fillColor=#BBDEFB;strokeColor=#1976D2;fontSize=10;align=left;spacingLeft=10;fontFamily=Courier New;" vertex="1" parent="1">
          <mxGeometry x="1070" y="940" width="300" height="110" as="geometry" />
        </mxCell>

        <mxCell id="scenario2" value="SCENARIO 2: Production (Distributed)&#xa;&#xa;Services on different machines:&#xa;• Core: core.company.com:443&#xa;• Auth: auth.company.com:443&#xa;• Perm: perm.company.com:443&#xa;• Extensions: ext.company.com:443&#xa;&#xa;Database: PostgreSQL cluster" style="rounded=1;whiteSpace=wrap;html=1;fillColor=#90CAF9;strokeColor=#1976D2;fontSize=10;align=left;spacingLeft=10;fontFamily=Courier New;" vertex="1" parent="1">
          <mxGeometry x="1400" y="940" width="300" height="130" as="geometry" />
        </mxCell>

        <mxCell id="scenario3" value="SCENARIO 3: High Availability&#xa;&#xa;Kubernetes/Docker Swarm:&#xa;• Load-balanced services&#xa;• Auto-scaling&#xa;• Service mesh (Istio/Linkerd)&#xa;• Health checks &amp; monitoring" style="rounded=1;whiteSpace=wrap;html=1;fillColor=#64B5F6;strokeColor=#1976D2;fontSize=10;align=left;spacingLeft=10;fontFamily=Courier New;" vertex="1" parent="1">
          <mxGeometry x="1070" y="1070" width="300" height="80" as="geometry" />
        </mxCell>

        <mxCell id="config-note" value="CONFIGURATION&#xa;&#xa;All service URLs configurable:&#xa;• Configurations/dev.json&#xa;• Configurations/production.json&#xa;• Environment variables" style="rounded=1;whiteSpace=wrap;html=1;fillColor=#42A5F5;strokeColor=#1976D2;fontColor=#FFFFFF;fontSize=10;align=left;spacingLeft=10;fontStyle=1" vertex="1" parent="1">
          <mxGeometry x="1400" y="1090" width="300" height="60" as="geometry" />
        </mxCell>

        <!-- Communication Details -->
        <mxCell id="comm-bg" value="" style="rounded=1;whiteSpace=wrap;html=1;fillColor=#FFF9C4;strokeColor=#F57F17;strokeWidth=2;" vertex="1" parent="1">
          <mxGeometry x="80" y="400" width="500" height="350" as="geometry" />
        </mxCell>
        <mxCell id="comm-title" value="HTTP COMMUNICATION DETAILS" style="text;html=1;strokeColor=none;fillColor=none;align=left;verticalAlign=top;whiteSpace=wrap;rounded=0;fontSize=16;fontStyle=1;fontColor=#F57F17;" vertex="1" parent="1">
          <mxGeometry x="100" y="410" width="400" height="30" as="geometry" />
        </mxCell>

        <mxCell id="comm-details" value="REQUEST FORMAT (All Services):&#xa;{&#xa;  &quot;action&quot;: &quot;string&quot;,&#xa;  &quot;data&quot;: {...}&#xa;}&#xa;&#xa;RESPONSE FORMAT:&#xa;{&#xa;  &quot;errorCode&quot;: -1,&#xa;  &quot;errorMessage&quot;: &quot;&quot;,&#xa;  &quot;data&quot;: {...}&#xa;}&#xa;&#xa;FEATURES:&#xa;• JSON over HTTP/HTTPS&#xa;• Timeout: 30s (configurable)&#xa;• Retry: 3 attempts&#xa;• Circuit breaker pattern&#xa;• Connection pooling&#xa;• TLS/SSL support" style="rounded=1;whiteSpace=wrap;html=1;fillColor=#FFEB3B;strokeColor=#F57F17;fontSize=10;align=left;spacingLeft=10;fontFamily=Courier New;" vertex="1" parent="1">
          <mxGeometry x="110" y="460" width="440" height="240" as="geometry" />
        </mxCell>

      </root>
    </mxGraphModel>
  </diagram>
</mxfile>
